# xmcd CD database file
#
# Track frame offsets:
#	150
#	12309
#	25866
#	38778
#	51799
#	65237
#	78010
#	89516
#	102142
#	114689
#	127594
#	139846
#	151560
#	163943
#	175824
#	188326
#	200729
#	212224
#
# Disc length: 3001 seconds
#
# Revision: 0
# Processed by: cddbd v1.5.2PL0 Copyright (c) Steve Scherf et al.
# Submitted via: CDex 1.51
#
DISCID=ea0bb712
DTITLE=Clarence "Gatemouth" Brown - The Chronological "Gatemouth" Brown: 1952-1954
DYEAR=2005
DGENRE=Blues
TTITLE0=Baby Take It Easy
TTITLE1=She Winked Her Eye
TTITLE2=Sad Hour
TTITLE3=Pale Dry Boogie - Part 1
TTITLE4=Pale Dry Boogie - Part 2
TTITLE5=Dirty Work At The Cross Road
TTITLE6=You Got Money
TTITLE7=September Song
TTITLE8=Boogie Uproar
TTITLE9=Please Tell Me Baby
TTITLE10=Hurry Back Good News
TTITLE11=Gate Walks To Board
TTITLE12=Midnight Hour
TTITLE13=Good Looking Woman
TTITLE14=For Now, So Long
TTITLE15=That's Your Daddy Yaddy Yo
TTITLE16=Okie Dokie Stomp
TTITLE17=Depression Blues
EXTD=YEAR: 2005
EXTT0=
EXTT1=
EXTT2=
EXTT3=
EXTT4=
EXTT5=
EXTT6=
EXTT7=
EXTT8=
EXTT9=
EXTT10=
EXTT11=
EXTT12=
EXTT13=
EXTT14=
EXTT15=
EXTT16=
EXTT17=
PLAYORDER=
